<svg width="28" height="28" viewBox="0 0 28 28" fill="none" xmlns="http://www.w3.org/2000/svg">
<g clip-path="url(#clip0_374_34631)">
<path d="M27.2169 14.167C27.2169 6.86811 21.2999 0.951172 14.001 0.951172C6.70209 0.951172 0.785156 6.86811 0.785156 14.167C0.785156 20.7633 5.61798 26.2309 11.936 27.2223V17.9872H8.58045V14.167H11.936V11.2554C11.936 7.94319 13.9091 6.11362 16.9279 6.11362C18.3733 6.11362 19.8862 6.37174 19.8862 6.37174V9.62408H18.2198C16.5781 9.62408 16.066 10.6429 16.066 11.6891V14.167H19.7313L19.1454 17.9872H16.066V27.2223C22.3841 26.2309 27.2169 20.7633 27.2169 14.167Z" fill="white"/>
</g>
<defs>
<clipPath id="clip0_374_34631">
<rect width="26.4317" height="26.4317" fill="white" transform="translate(0.785156 0.951172)"/>
</clipPath>
</defs>
</svg>
