<svg width="24" height="25" viewBox="0 0 24 25" fill="none" xmlns="http://www.w3.org/2000/svg">
<g clip-path="url(#clip0_374_34625)">
<path d="M12 2.32793C15.2063 2.32793 15.5859 2.34199 16.8469 2.39824C18.0188 2.4498 18.6516 2.64668 19.0734 2.81074C19.6313 3.02637 20.0344 3.28887 20.4516 3.70606C20.8734 4.12793 21.1313 4.52637 21.3469 5.08418C21.5109 5.50606 21.7078 6.14356 21.7594 7.31074C21.8156 8.57637 21.8297 8.95606 21.8297 12.1576C21.8297 15.3639 21.8156 15.7436 21.7594 17.0045C21.7078 18.1764 21.5109 18.8092 21.3469 19.2311C21.1313 19.7889 20.8687 20.192 20.4516 20.6092C20.0297 21.0311 19.6313 21.2889 19.0734 21.5045C18.6516 21.6686 18.0141 21.8654 16.8469 21.917C15.5813 21.9732 15.2016 21.9873 12 21.9873C8.79375 21.9873 8.41406 21.9732 7.15313 21.917C5.98125 21.8654 5.34844 21.6686 4.92656 21.5045C4.36875 21.2889 3.96563 21.0264 3.54844 20.6092C3.12656 20.1873 2.86875 19.7889 2.65313 19.2311C2.48906 18.8092 2.29219 18.1717 2.24063 17.0045C2.18438 15.7389 2.17031 15.3592 2.17031 12.1576C2.17031 8.95137 2.18438 8.57168 2.24063 7.31074C2.29219 6.13887 2.48906 5.50606 2.65313 5.08418C2.86875 4.52637 3.13125 4.12324 3.54844 3.70606C3.97031 3.28418 4.36875 3.02637 4.92656 2.81074C5.34844 2.64668 5.98594 2.4498 7.15313 2.39824C8.41406 2.34199 8.79375 2.32793 12 2.32793ZM12 0.166992C8.74219 0.166992 8.33438 0.181055 7.05469 0.237305C5.77969 0.293555 4.90313 0.499805 4.14375 0.795117C3.35156 1.10449 2.68125 1.5123 2.01563 2.18262C1.34531 2.84824 0.9375 3.51856 0.628125 4.30606C0.332812 5.07012 0.126563 5.94199 0.0703125 7.21699C0.0140625 8.50137 0 8.90918 0 12.167C0 15.4248 0.0140625 15.8326 0.0703125 17.1123C0.126563 18.3873 0.332812 19.2639 0.628125 20.0232C0.9375 20.8154 1.34531 21.4857 2.01563 22.1514C2.68125 22.817 3.35156 23.2295 4.13906 23.5342C4.90313 23.8295 5.775 24.0357 7.05 24.092C8.32969 24.1482 8.7375 24.1623 11.9953 24.1623C15.2531 24.1623 15.6609 24.1482 16.9406 24.092C18.2156 24.0357 19.0922 23.8295 19.8516 23.5342C20.6391 23.2295 21.3094 22.817 21.975 22.1514C22.6406 21.4857 23.0531 20.8154 23.3578 20.0279C23.6531 19.2639 23.8594 18.392 23.9156 17.117C23.9719 15.8373 23.9859 15.4295 23.9859 12.1717C23.9859 8.91387 23.9719 8.50606 23.9156 7.22637C23.8594 5.95137 23.6531 5.07481 23.3578 4.31543C23.0625 3.51856 22.6547 2.84824 21.9844 2.18262C21.3188 1.51699 20.6484 1.10449 19.8609 0.799805C19.0969 0.504492 18.225 0.298242 16.95 0.241992C15.6656 0.181055 15.2578 0.166992 12 0.166992Z" fill="white"/>
<path d="M12 6.00293C8.59688 6.00293 5.83594 8.76387 5.83594 12.167C5.83594 15.5701 8.59688 18.3311 12 18.3311C15.4031 18.3311 18.1641 15.5701 18.1641 12.167C18.1641 8.76387 15.4031 6.00293 12 6.00293ZM12 16.1654C9.79219 16.1654 8.00156 14.3748 8.00156 12.167C8.00156 9.95918 9.79219 8.16855 12 8.16855C14.2078 8.16855 15.9984 9.95918 15.9984 12.167C15.9984 14.3748 14.2078 16.1654 12 16.1654Z" fill="white"/>
<path d="M19.8469 5.75913C19.8469 6.55601 19.2 7.1982 18.4078 7.1982C17.6109 7.1982 16.9688 6.55132 16.9688 5.75913C16.9688 4.96226 17.6156 4.32007 18.4078 4.32007C19.2 4.32007 19.8469 4.96694 19.8469 5.75913Z" fill="white"/>
</g>
<defs>
<clipPath id="clip0_374_34625">
<rect width="24" height="24" fill="white" transform="translate(0 0.166992)"/>
</clipPath>
</defs>
</svg>
