<svg width="17" height="16" viewBox="0 0 17 16" fill="none" xmlns="http://www.w3.org/2000/svg">
<path d="M8.25 8C7.15 8 6.20833 7.60833 5.425 6.825C4.64167 6.04167 4.25 5.1 4.25 4C4.25 2.9 4.64167 1.95833 5.425 1.175C6.20833 0.391667 7.15 0 8.25 0C9.35 0 10.2917 0.391667 11.075 1.175C11.8583 1.95833 12.25 2.9 12.25 4C12.25 5.1 11.8583 6.04167 11.075 6.825C10.2917 7.60833 9.35 8 8.25 8ZM0.25 16V13.2C0.25 12.6333 0.395833 12.1125 0.6875 11.6375C0.979167 11.1625 1.36667 10.8 1.85 10.55C2.88333 10.0333 3.93333 9.64583 5 9.3875C6.06667 9.12917 7.15 9 8.25 9C9.35 9 10.4333 9.12917 11.5 9.3875C12.5667 9.64583 13.6167 10.0333 14.65 10.55C15.1333 10.8 15.5208 11.1625 15.8125 11.6375C16.1042 12.1125 16.25 12.6333 16.25 13.2V16H0.25ZM2.25 14H14.25V13.2C14.25 13.0167 14.2042 12.85 14.1125 12.7C14.0208 12.55 13.9 12.4333 13.75 12.35C12.85 11.9 11.9417 11.5625 11.025 11.3375C10.1083 11.1125 9.18333 11 8.25 11C7.31667 11 6.39167 11.1125 5.475 11.3375C4.55833 11.5625 3.65 11.9 2.75 12.35C2.6 12.4333 2.47917 12.55 2.3875 12.7C2.29583 12.85 2.25 13.0167 2.25 13.2V14ZM8.25 6C8.8 6 9.27083 5.80417 9.6625 5.4125C10.0542 5.02083 10.25 4.55 10.25 4C10.25 3.45 10.0542 2.97917 9.6625 2.5875C9.27083 2.19583 8.8 2 8.25 2C7.7 2 7.22917 2.19583 6.8375 2.5875C6.44583 2.97917 6.25 3.45 6.25 4C6.25 4.55 6.44583 5.02083 6.8375 5.4125C7.22917 5.80417 7.7 6 8.25 6Z" fill="#333333"/>
</svg>
