<svg width="19" height="17" viewBox="0 0 19 17" fill="none" xmlns="http://www.w3.org/2000/svg">
<path d="M2.7375 16.426V14.601H15.5125V16.426H2.7375ZM2.7375 13.2322L1.57406 5.90941C1.54365 5.90941 1.50943 5.91322 1.47141 5.92082C1.43339 5.92843 1.39917 5.93223 1.36875 5.93223C0.988542 5.93223 0.665365 5.79915 0.399219 5.53301C0.133073 5.26686 0 4.94369 0 4.56348C0 4.18327 0.133073 3.86009 0.399219 3.59395C0.665365 3.3278 0.988542 3.19473 1.36875 3.19473C1.74896 3.19473 2.07214 3.3278 2.33828 3.59395C2.60443 3.86009 2.7375 4.18327 2.7375 4.56348C2.7375 4.66994 2.72609 4.76879 2.70328 4.86004C2.68047 4.95129 2.65385 5.03494 2.62344 5.11098L5.475 6.38848L8.32656 2.48754C8.15927 2.36587 8.0224 2.20619 7.91594 2.00848C7.80948 1.81077 7.75625 1.59785 7.75625 1.36973C7.75625 0.989518 7.88932 0.666341 8.15547 0.400195C8.42161 0.134049 8.74479 0.000976562 9.125 0.000976562C9.50521 0.000976562 9.82839 0.134049 10.0945 0.400195C10.3607 0.666341 10.4938 0.989518 10.4938 1.36973C10.4938 1.59785 10.4405 1.81077 10.3341 2.00848C10.2276 2.20619 10.0907 2.36587 9.92344 2.48754L12.775 6.38848L15.6266 5.11098C15.5961 5.03494 15.5695 4.95129 15.5467 4.86004C15.5239 4.76879 15.5125 4.66994 15.5125 4.56348C15.5125 4.18327 15.6456 3.86009 15.9117 3.59395C16.1779 3.3278 16.501 3.19473 16.8813 3.19473C17.2615 3.19473 17.5846 3.3278 17.8508 3.59395C18.1169 3.86009 18.25 4.18327 18.25 4.56348C18.25 4.94369 18.1169 5.26686 17.8508 5.53301C17.5846 5.79915 17.2615 5.93223 16.8813 5.93223C16.8508 5.93223 16.8166 5.92843 16.7786 5.92082C16.7406 5.91322 16.7064 5.90941 16.6759 5.90941L15.5125 13.2322H2.7375ZM4.28875 11.4072H13.9613L14.5544 7.59754L12.1591 8.64692L9.125 4.47223L6.09094 8.64692L3.69563 7.59754L4.28875 11.4072Z" fill="#333333"/>
</svg>
