<svg width="21" height="14" viewBox="0 0 21 14" fill="none" xmlns="http://www.w3.org/2000/svg">
<path d="M0.25 13.5V11.5H10.25V13.5H0.25ZM0.25 8.5V6.5H5.25V8.5H0.25ZM0.25 3.5V1.5H5.25V3.5H0.25ZM18.85 13.5L15 9.65C14.6 9.93333 14.1625 10.1458 13.6875 10.2875C13.2125 10.4292 12.7333 10.5 12.25 10.5C10.8667 10.5 9.6875 10.0125 8.7125 9.0375C7.7375 8.0625 7.25 6.88333 7.25 5.5C7.25 4.11667 7.7375 2.9375 8.7125 1.9625C9.6875 0.9875 10.8667 0.5 12.25 0.5C13.6333 0.5 14.8125 0.9875 15.7875 1.9625C16.7625 2.9375 17.25 4.11667 17.25 5.5C17.25 5.98333 17.1792 6.4625 17.0375 6.9375C16.8958 7.4125 16.6833 7.85 16.4 8.25L20.25 12.1L18.85 13.5ZM12.25 8.5C13.0833 8.5 13.7917 8.20833 14.375 7.625C14.9583 7.04167 15.25 6.33333 15.25 5.5C15.25 4.66667 14.9583 3.95833 14.375 3.375C13.7917 2.79167 13.0833 2.5 12.25 2.5C11.4167 2.5 10.7083 2.79167 10.125 3.375C9.54167 3.95833 9.25 4.66667 9.25 5.5C9.25 6.33333 9.54167 7.04167 10.125 7.625C10.7083 8.20833 11.4167 8.5 12.25 8.5Z" fill="#333333"/>
</svg>
