<svg width="28" height="28" viewBox="0 0 28 28" fill="none" xmlns="http://www.w3.org/2000/svg">
<g clip-path="url(#clip0_1280_183851)">
<path d="M27.2169 13.9991C27.2169 6.70014 21.2999 0.783203 14.001 0.783203C6.70209 0.783203 0.785156 6.70014 0.785156 13.9991C0.785156 20.5954 5.61798 26.0629 11.936 27.0544V17.8193H8.58045V13.9991H11.936V11.0874C11.936 7.77522 13.9091 5.94565 16.9279 5.94565C18.3733 5.94565 19.8862 6.20377 19.8862 6.20377V9.45611H18.2198C16.5781 9.45611 16.066 10.4749 16.066 11.5211V13.9991H19.7313L19.1454 17.8193H16.066V27.0544C22.3841 26.0629 27.2169 20.5954 27.2169 13.9991Z" fill="white"/>
</g>
<defs>
<clipPath id="clip0_1280_183851">
<rect width="26.4317" height="26.4317" fill="white" transform="translate(0.785156 0.783203)"/>
</clipPath>
</defs>
</svg>
