<svg width="28" height="27" viewBox="0 0 28 27" fill="none" xmlns="http://www.w3.org/2000/svg">
<g clip-path="url(#clip0_787_72634)">
<path d="M27.2169 13.2544C27.2169 5.95551 21.2999 0.0385742 14.001 0.0385742C6.70209 0.0385742 0.785156 5.95551 0.785156 13.2544C0.785156 19.8507 5.61798 25.3183 11.936 26.3097V17.0746H8.58045V13.2544H11.936V10.3428C11.936 7.03059 13.9091 5.20102 16.9279 5.20102C18.3733 5.20102 19.8862 5.45914 19.8862 5.45914V8.71148H18.2198C16.5781 8.71148 16.066 9.73029 16.066 10.7765V13.2544H19.7313L19.1454 17.0746H16.066V26.3097C22.3841 25.3183 27.2169 19.8507 27.2169 13.2544Z" fill="#333333"/>
</g>
<defs>
<clipPath id="clip0_787_72634">
<rect width="26.4317" height="26.4317" fill="white" transform="translate(0.785156 0.0385742)"/>
</clipPath>
</defs>
</svg>
