<svg width="24" height="25" viewBox="0 0 24 25" fill="none" xmlns="http://www.w3.org/2000/svg">
<g clip-path="url(#clip0_787_72628)">
<path d="M12 2.41533C15.2063 2.41533 15.5859 2.42939 16.8469 2.48564C18.0188 2.53721 18.6516 2.73408 19.0734 2.89814C19.6313 3.11377 20.0344 3.37627 20.4516 3.79346C20.8734 4.21533 21.1313 4.61377 21.3469 5.17158C21.5109 5.59346 21.7078 6.23096 21.7594 7.39815C21.8156 8.66377 21.8297 9.04346 21.8297 12.245C21.8297 15.4513 21.8156 15.831 21.7594 17.0919C21.7078 18.2638 21.5109 18.8966 21.3469 19.3185C21.1313 19.8763 20.8687 20.2794 20.4516 20.6966C20.0297 21.1185 19.6313 21.3763 19.0734 21.5919C18.6516 21.756 18.0141 21.9528 16.8469 22.0044C15.5813 22.0606 15.2016 22.0747 12 22.0747C8.79375 22.0747 8.41406 22.0606 7.15313 22.0044C5.98125 21.9528 5.34844 21.756 4.92656 21.5919C4.36875 21.3763 3.96563 21.1138 3.54844 20.6966C3.12656 20.2747 2.86875 19.8763 2.65313 19.3185C2.48906 18.8966 2.29219 18.2591 2.24063 17.0919C2.18438 15.8263 2.17031 15.4466 2.17031 12.245C2.17031 9.03877 2.18438 8.65908 2.24063 7.39815C2.29219 6.22627 2.48906 5.59346 2.65313 5.17158C2.86875 4.61377 3.13125 4.21064 3.54844 3.79346C3.97031 3.37158 4.36875 3.11377 4.92656 2.89814C5.34844 2.73408 5.98594 2.53721 7.15313 2.48564C8.41406 2.42939 8.79375 2.41533 12 2.41533ZM12 0.254395C8.74219 0.254395 8.33438 0.268457 7.05469 0.324707C5.77969 0.380957 4.90313 0.587207 4.14375 0.88252C3.35156 1.19189 2.68125 1.59971 2.01563 2.27002C1.34531 2.93564 0.9375 3.60596 0.628125 4.39346C0.332812 5.15752 0.126563 6.02939 0.0703125 7.3044C0.0140625 8.58877 0 8.99658 0 12.2544C0 15.5122 0.0140625 15.92 0.0703125 17.1997C0.126563 18.4747 0.332812 19.3513 0.628125 20.1106C0.9375 20.9028 1.34531 21.5731 2.01563 22.2388C2.68125 22.9044 3.35156 23.3169 4.13906 23.6216C4.90313 23.9169 5.775 24.1231 7.05 24.1794C8.32969 24.2356 8.7375 24.2497 11.9953 24.2497C15.2531 24.2497 15.6609 24.2356 16.9406 24.1794C18.2156 24.1231 19.0922 23.9169 19.8516 23.6216C20.6391 23.3169 21.3094 22.9044 21.975 22.2388C22.6406 21.5731 23.0531 20.9028 23.3578 20.1153C23.6531 19.3513 23.8594 18.4794 23.9156 17.2044C23.9719 15.9247 23.9859 15.5169 23.9859 12.2591C23.9859 9.00127 23.9719 8.59346 23.9156 7.31377C23.8594 6.03877 23.6531 5.16221 23.3578 4.40283C23.0625 3.60596 22.6547 2.93564 21.9844 2.27002C21.3188 1.60439 20.6484 1.19189 19.8609 0.887207C19.0969 0.591895 18.225 0.385645 16.95 0.329395C15.6656 0.268457 15.2578 0.254395 12 0.254395Z" fill="#333333"/>
<path d="M12 6.09033C8.59688 6.09033 5.83594 8.85127 5.83594 12.2544C5.83594 15.6575 8.59688 18.4185 12 18.4185C15.4031 18.4185 18.1641 15.6575 18.1641 12.2544C18.1641 8.85127 15.4031 6.09033 12 6.09033ZM12 16.2528C9.79219 16.2528 8.00156 14.4622 8.00156 12.2544C8.00156 10.0466 9.79219 8.25596 12 8.25596C14.2078 8.25596 15.9984 10.0466 15.9984 12.2544C15.9984 14.4622 14.2078 16.2528 12 16.2528Z" fill="#333333"/>
<path d="M19.8469 5.84678C19.8469 6.64366 19.2 7.28584 18.4078 7.28584C17.6109 7.28584 16.9688 6.63897 16.9688 5.84678C16.9688 5.0499 17.6156 4.40771 18.4078 4.40771C19.2 4.40771 19.8469 5.05459 19.8469 5.84678Z" fill="#333333"/>
</g>
<defs>
<clipPath id="clip0_787_72628">
<rect width="24" height="24" fill="white" transform="translate(0 0.254395)"/>
</clipPath>
</defs>
</svg>
