<svg width="14" height="14" viewBox="0 0 14 14" fill="none" xmlns="http://www.w3.org/2000/svg">
<g clip-path="url(#clip0_1057_194628)">
<path fill-rule="evenodd" clip-rule="evenodd" d="M5.5469 4.99945L7 2.6745L8.4531 4.99945C8.66316 5.33555 9.11414 5.42308 9.43468 5.18996L12.5552 2.92051L11.3566 9.21306C11.3385 9.30787 11.2556 9.37646 11.1591 9.37646H2.84088C2.74436 9.37646 2.66146 9.30787 2.6434 9.21306L1.44482 2.92051L4.56532 5.18996C4.88586 5.42308 5.33684 5.33556 5.5469 4.99945ZM7.57958 1.32612C7.31189 0.897808 6.68811 0.897803 6.42042 1.32612L4.82128 3.88474L1.08632 1.16841C0.585407 0.804105 -0.102971 1.2406 0.0129233 1.84904L1.45858 9.43874C1.585 10.1024 2.16526 10.5826 2.84088 10.5826H11.1591C11.8347 10.5826 12.415 10.1024 12.5414 9.43874L13.9871 1.84904C14.103 1.2406 13.4146 0.804103 12.9137 1.16841L9.17872 3.88474L7.57958 1.32612ZM2.17549 11.7887C1.84243 11.7887 1.57243 12.0587 1.57243 12.3918C1.57243 12.7248 1.84243 12.9948 2.17549 12.9948H11.8245C12.1576 12.9948 12.4276 12.7248 12.4276 12.3918C12.4276 12.0587 12.1576 11.7887 11.8245 11.7887H2.17549Z" fill="white"/>
</g>
<defs>
<clipPath id="clip0_1057_194628">
<rect width="14" height="14" fill="white"/>
</clipPath>
</defs>
</svg>
